<?xml version="1.0" encoding="UTF-8" standalone="no"?>
<!DOCTYPE svg PUBLIC "-//W3C//DTD SVG 1.1//EN" "http://www.w3.org/Graphics/SVG/1.1/DTD/svg11.dtd">
<svg version="1.1" xmlns="http://www.w3.org/2000/svg" xmlns:xlink="http://www.w3.org/1999/xlink" preserveAspectRatio="xMidYMid meet" viewBox="0 0 501 501" width="501" height="501"><defs><path d="M245.37 146.39L245.17 214.71L225.22 234.64L190.99 200.52L245.37 146.39Z" id="b3ivYx0ky"></path><path d="M136.81 146.39L225.26 234.59L191.1 268.75L136.74 214.53L136.81 146.39Z" id="d1bcBCOEQ"></path><path d="M245.37 146.39L293.68 146.39L293.41 355.61L245.1 355.61L245.37 146.39Z" id="e1AoAdDezB"></path><path d="M88.5 146.39L136.81 146.39L136.52 355.61L88.21 355.61L88.5 146.39Z" id="e1phAPE2L"></path><path d="M348.73 146.6L309.35 215.33L337.53 252.4L401.64 146.6L348.73 146.6Z" id="g1wjTlN3og"></path><path d="M293.53 194.48L293.53 270.78L356.46 355.39L415.78 355.39L293.53 194.48Z" id="aQSZ722Z"></path><path d="M74.23 74.22C27.34 121.11 1 184.69 1 251C1 317.3 27.34 380.89 74.23 427.77C121.11 474.66 184.7 501 251.01 501C317.31 501 380.9 474.66 427.79 427.77C474.67 380.89 501.01 317.3 501.01 251C501.01 112.93 389.08 1 251.01 1C184.7 1 121.11 27.34 74.23 74.22ZM399.39 102.62C438.74 141.97 460.85 195.34 460.86 251C460.86 306.65 438.74 360.03 399.39 399.38C360.04 438.73 306.67 460.84 251.01 460.84C195.36 460.84 141.98 438.73 102.63 399.38C63.28 360.03 41.17 306.65 41.17 251C41.17 135.11 135.12 41.16 251.01 41.16C306.66 41.16 360.04 63.26 399.39 102.62Z" id="enOwIPyNI"></path><path d="M223.56 2.77C223.56 6.83 223.56 39.28 223.56 43.33C232.98 41.96 242.48 41.24 252 41.16C367.89 41.16 461.84 135.11 461.84 251C461.76 267.77 459.67 284.48 455.61 300.76C459.72 300.76 492.62 300.76 496.73 300.76C500.15 284.39 501.91 267.72 502 251C502 184.69 475.66 121.1 428.78 74.22C381.89 27.34 318.31 1 252 1C242.5 1.05 233 1.64 223.56 2.77Z" id="cDLF1gjwa"></path><path d="M222.47 2.77C97.43 17.13 2.57 122.19 1 248.04C5.03 248.04 37.19 248.04 41.21 248.04C42.79 144.4 119.79 57.44 222.47 43.33C222.47 35.22 222.47 10.88 222.47 2.77Z" id="dSQqpXVDk"></path></defs><g><g><g><use xlink:href="#b3ivYx0ky" opacity="1" fill="#3ea6ff" fill-opacity="1"></use><g><use xlink:href="#b3ivYx0ky" opacity="1" fill-opacity="0" stroke="#000000" stroke-width="1" stroke-opacity="0"></use></g></g><g><use xlink:href="#d1bcBCOEQ" opacity="1" fill="#3ea6ff" fill-opacity="1"></use><g><use xlink:href="#d1bcBCOEQ" opacity="1" fill-opacity="0" stroke="#000000" stroke-width="1" stroke-opacity="0"></use></g></g><g><use xlink:href="#e1AoAdDezB" opacity="1" fill="#3ea6ff" fill-opacity="1"></use><g><use xlink:href="#e1AoAdDezB" opacity="1" fill-opacity="0" stroke="#000000" stroke-width="1" stroke-opacity="0"></use></g></g><g><use xlink:href="#e1phAPE2L" opacity="1" fill="#3ea6ff" fill-opacity="1"></use><g><use xlink:href="#e1phAPE2L" opacity="1" fill-opacity="0" stroke="#000000" stroke-width="1" stroke-opacity="0"></use></g></g><g><use xlink:href="#g1wjTlN3og" opacity="1" fill="#3ea6ff" fill-opacity="1"></use><g><use xlink:href="#g1wjTlN3og" opacity="1" fill-opacity="0" stroke="#000000" stroke-width="1" stroke-opacity="0"></use></g></g><g><use xlink:href="#aQSZ722Z" opacity="1" fill="#3ea6ff" fill-opacity="1"></use><g><use xlink:href="#aQSZ722Z" opacity="1" fill-opacity="0" stroke="#000000" stroke-width="1" stroke-opacity="0"></use></g></g><g><use xlink:href="#enOwIPyNI" opacity="1" fill="#3ea6ff" fill-opacity="1"></use><g><use xlink:href="#enOwIPyNI" opacity="1" fill-opacity="0" stroke="#000000" stroke-width="1" stroke-opacity="0"></use></g></g><g><use xlink:href="#cDLF1gjwa" opacity="1" fill="#3ea6ff" fill-opacity="1"></use><g><use xlink:href="#cDLF1gjwa" opacity="1" fill-opacity="0" stroke="#000000" stroke-width="1" stroke-opacity="0"></use></g></g><g><use xlink:href="#dSQqpXVDk" opacity="1" fill="#3ea6ff" fill-opacity="1"></use><g><use xlink:href="#dSQqpXVDk" opacity="1" fill-opacity="0" stroke="#000000" stroke-width="1" stroke-opacity="0"></use></g></g></g></g></svg>